Coordinates
version=1
nRows=21
nColumns=12
inDegrees=yes

Units are S.I. units (second, meters, Newtons, ...)
Angles are in degrees

endheader
time	SC_y	SC_z	SC_x	AC_y	AC_z	AC_x	GH_y	GH_z	GH_yy	EL_x	PS_y
       0.0              -34.57          9.892          8.389          44.05          6.254          -16.1          125.7          50.52            6.3          82.77          23.83
   0.04371              -34.57          9.894          8.394          44.06          6.251          -16.1          125.6          50.52          6.278          82.77          23.85
   0.08742              -34.58          9.895          8.399          44.06          6.247          -16.1          125.6          50.52          6.254          82.77          23.87
    0.1311              -34.58          9.896          8.404          44.06          6.244          -16.1          125.6          50.52          6.229          82.77          23.88
    0.1748              -34.58          9.898           8.41          44.07           6.24          -16.1          125.5          50.52          6.202          82.77           23.9
    0.2185              -34.59            9.9          8.417          44.07          6.236          -16.1          125.5          50.51          6.173          82.76          23.92
    0.2623              -34.59          9.901          8.424          44.08          6.231          -16.1          125.4          50.51          6.143          82.76          23.94
     0.306               -34.6          9.903          8.431          44.08          6.226          -16.1          125.4          50.51           6.11          82.76          23.97
    0.3497               -34.6          9.905          8.439          44.09          6.221          -16.1          125.3          50.51          6.075          82.76          23.99
    0.3934              -34.61          9.907          8.447          44.09          6.216          -16.1          125.2          50.51          6.038          82.76          24.02
    0.4371              -34.61           9.91          8.456           44.1           6.21          -16.1          125.2           50.5          5.998          82.76          24.05
    0.4808              -34.62          9.912          8.466           44.1          6.204          -16.1          125.1           50.5          5.955          82.75          24.08
    0.5245              -34.62          9.915          8.476          44.11          6.197          -16.1          125.0           50.5          5.908          82.75          24.11
    0.5682              -34.63          9.918          8.487          44.12          6.189          -16.1          124.9          50.49          5.858          82.75          24.15
    0.6119              -34.64          9.921            8.5          44.13          6.181          -16.1          124.8          50.49          5.803          82.75          24.19
    0.6556              -34.65          9.924          8.513          44.13          6.173          -16.1          124.7          50.49          5.744          82.75          24.23
    0.6993              -34.65          9.928          8.527          44.14          6.163          -16.1          124.6          50.48           5.68          82.74          24.27
    0.7431              -34.66          9.932          8.543          44.15          6.153          -16.1          124.5          50.48           5.61          82.74          24.32
    0.7868              -34.67          9.936           8.56          44.16          6.142          -16.1          124.3          50.47          5.533          82.74          24.38
    0.8305              -34.69          9.941          8.579          44.18           6.13          -16.1          124.2          50.47           5.45          82.73          24.44
    0.8742               -34.7          9.947          8.599          44.19          6.116          -16.1          124.0          50.46          5.358          82.73           24.5
